<svg xmlns="http://www.w3.org/2000/svg" viewBox="0 0 640 360"><defs><linearGradient id="g" x1="0" x2="1" y1="0" y2="1"><stop stop-color="#e9f7e8"/><stop offset="1" stop-color="#9bd39b"/></linearGradient></defs><rect width="640" height="360" rx="28" fill="url(#g)"/><rect y="270" width="640" height="90" fill="#78b66d"/><path d="M320 286C316 220 326 160 344 105" stroke="#7b4e2d" stroke-width="20" stroke-linecap="round"/><path d="M340 110C285 74 245 71 195 91M340 110C375 62 420 47 475 55M340 110C302 40 315 25 335 12M340 110C392 94 442 105 500 138M340 110C279 109 234 130 190 168" fill="none" stroke="#16734a" stroke-width="16" stroke-linecap="round"/><circle cx="340" cy="112" r="28" fill="#6c9b3d"/><circle cx="370" cy="126" r="25" fill="#79aa43"/><circle cx="313" cy="129" r="25" fill="#78a843"/></svg>
